<svg width="38" height="22" viewBox="0 0 38 22" fill="none" xmlns="http://www.w3.org/2000/svg">
<path d="M34.9353 2.56962C33.4016 0.940877 31.2684 0.126505 28.536 0.126505C27.0526 0.109676 25.5936 0.49951 24.3213 1.25263C23.0766 1.98503 22.0392 3.01573 21.3053 4.24926C20.6575 2.97631 19.6503 1.91567 18.4053 1.19537C17.0976 0.465644 15.6152 0.0964703 14.1133 0.126505C12.7508 0.0930569 11.4036 0.415703 10.208 1.06176C9.1301 1.66258 8.2388 2.54252 7.63022 3.60667V0.317374H0V21.7201H7.61733V10.357C7.58431 9.85394 7.65463 9.34944 7.82407 8.87385C7.99351 8.39825 8.25857 7.96137 8.60333 7.58945C8.96099 7.25576 9.38367 6.99738 9.84565 6.83004C10.3076 6.66269 10.7993 6.58988 11.2907 6.61603C11.7634 6.59477 12.2355 6.66838 12.6786 6.83241C13.1217 6.99644 13.5265 7.24749 13.8684 7.57037C14.2048 7.9324 14.4629 8.35834 14.6268 8.82216C14.7908 9.28598 14.8573 9.77793 14.8222 10.268V21.7201H22.4267V10.357C22.3936 9.85394 22.464 9.34944 22.6334 8.87385C22.8028 8.39825 23.0679 7.96137 23.4127 7.58945C23.7703 7.25576 24.193 6.99738 24.655 6.83004C25.117 6.66269 25.6086 6.58988 26.1 6.61603C26.5727 6.59477 27.0449 6.66838 27.4879 6.83241C27.931 6.99644 28.3358 7.24749 28.6778 7.57037C29.0164 7.93136 29.2769 8.35683 29.4431 8.82069C29.6093 9.28455 29.6778 9.77704 29.6444 10.268V21.7201H37.236V9.28818C37.236 6.43788 36.4691 4.19836 34.9353 2.56962Z" fill="#150C26"/>
</svg>
